%TF.GenerationSoftware,KiCad,Pcbnew,9.0.6*%
%TF.CreationDate,2026-01-06T18:18:01+01:00*%
%TF.ProjectId,pellet_burner,70656c6c-6574-45f6-9275-726e65722e6b,rev?*%
%TF.SameCoordinates,Original*%
%TF.FileFunction,Soldermask,Top*%
%TF.FilePolarity,Negative*%
%FSLAX46Y46*%
G04 Gerber Fmt 4.6, Leading zero omitted, Abs format (unit mm)*
G04 Created by KiCad (PCBNEW 9.0.6) date 2026-01-06 18:18:01*
%MOMM*%
%LPD*%
G01*
G04 APERTURE LIST*
G04 Aperture macros list*
%AMRoundRect*
0 Rectangle with rounded corners*
0 $1 Rounding radius*
0 $2 $3 $4 $5 $6 $7 $8 $9 X,Y pos of 4 corners*
0 Add a 4 corners polygon primitive as box body*
4,1,4,$2,$3,$4,$5,$6,$7,$8,$9,$2,$3,0*
0 Add four circle primitives for the rounded corners*
1,1,$1+$1,$2,$3*
1,1,$1+$1,$4,$5*
1,1,$1+$1,$6,$7*
1,1,$1+$1,$8,$9*
0 Add four rect primitives between the rounded corners*
20,1,$1+$1,$2,$3,$4,$5,0*
20,1,$1+$1,$4,$5,$6,$7,0*
20,1,$1+$1,$6,$7,$8,$9,0*
20,1,$1+$1,$8,$9,$2,$3,0*%
G04 Aperture macros list end*
%ADD10C,0.600000*%
%ADD11R,3.900000X3.900000*%
%ADD12R,1.500000X0.900000*%
%ADD13R,0.900000X1.500000*%
%ADD14C,2.800000*%
%ADD15RoundRect,0.250001X-1.149999X1.149999X-1.149999X-1.149999X1.149999X-1.149999X1.149999X1.149999X0*%
%ADD16RoundRect,0.250000X-0.250000X-0.475000X0.250000X-0.475000X0.250000X0.475000X-0.250000X0.475000X0*%
%ADD17RoundRect,0.150000X-0.150000X0.512500X-0.150000X-0.512500X0.150000X-0.512500X0.150000X0.512500X0*%
%ADD18O,1.700000X1.950000*%
%ADD19RoundRect,0.250000X-0.600000X-0.725000X0.600000X-0.725000X0.600000X0.725000X-0.600000X0.725000X0*%
%ADD20C,1.200000*%
%ADD21R,2.000000X2.180000*%
%ADD22R,1.150000X0.300000*%
%ADD23C,0.650000*%
%ADD24O,1.700000X2.000000*%
%ADD25RoundRect,0.250000X-0.600000X-0.750000X0.600000X-0.750000X0.600000X0.750000X-0.600000X0.750000X0*%
%ADD26RoundRect,0.250000X-0.450000X0.262500X-0.450000X-0.262500X0.450000X-0.262500X0.450000X0.262500X0*%
%ADD27RoundRect,0.250000X0.262500X0.450000X-0.262500X0.450000X-0.262500X-0.450000X0.262500X-0.450000X0*%
%ADD28RoundRect,0.300000X0.500000X-0.300000X0.500000X0.300000X-0.500000X0.300000X-0.500000X-0.300000X0*%
%ADD29RoundRect,0.300000X-0.300000X-0.500000X0.300000X-0.500000X0.300000X0.500000X-0.300000X0.500000X0*%
%ADD30RoundRect,0.250000X-0.262500X-0.450000X0.262500X-0.450000X0.262500X0.450000X-0.262500X0.450000X0*%
%ADD31RoundRect,0.250000X0.300000X-0.300000X0.300000X0.300000X-0.300000X0.300000X-0.300000X-0.300000X0*%
%ADD32RoundRect,0.250000X0.475000X-0.250000X0.475000X0.250000X-0.475000X0.250000X-0.475000X-0.250000X0*%
%ADD33RoundRect,0.250000X0.450000X-0.262500X0.450000X0.262500X-0.450000X0.262500X-0.450000X-0.262500X0*%
%ADD34R,1.700000X1.700000*%
%ADD35C,1.700000*%
%ADD36RoundRect,0.150000X-0.512500X-0.150000X0.512500X-0.150000X0.512500X0.150000X-0.512500X0.150000X0*%
%ADD37RoundRect,0.150000X0.512500X0.150000X-0.512500X0.150000X-0.512500X-0.150000X0.512500X-0.150000X0*%
%ADD38R,2.000000X4.400000*%
%ADD39RoundRect,0.250000X1.000000X0.650000X-1.000000X0.650000X-1.000000X-0.650000X1.000000X-0.650000X0*%
%ADD40RoundRect,0.162500X-0.162500X0.447500X-0.162500X-0.447500X0.162500X-0.447500X0.162500X0.447500X0*%
%ADD41RoundRect,0.250000X0.325000X0.650000X-0.325000X0.650000X-0.325000X-0.650000X0.325000X-0.650000X0*%
%ADD42RoundRect,0.250000X0.250000X0.475000X-0.250000X0.475000X-0.250000X-0.475000X0.250000X-0.475000X0*%
%ADD43RoundRect,0.250000X0.600000X0.750000X-0.600000X0.750000X-0.600000X-0.750000X0.600000X-0.750000X0*%
%ADD44RoundRect,0.250000X-1.075000X0.375000X-1.075000X-0.375000X1.075000X-0.375000X1.075000X0.375000X0*%
%ADD45RoundRect,0.100000X-0.850000X-0.100000X0.850000X-0.100000X0.850000X0.100000X-0.850000X0.100000X0*%
%ADD46RoundRect,0.250000X-0.325000X-0.650000X0.325000X-0.650000X0.325000X0.650000X-0.325000X0.650000X0*%
%ADD47RoundRect,0.250000X-0.475000X0.250000X-0.475000X-0.250000X0.475000X-0.250000X0.475000X0.250000X0*%
%ADD48RoundRect,0.150000X-0.825000X-0.150000X0.825000X-0.150000X0.825000X0.150000X-0.825000X0.150000X0*%
%ADD49RoundRect,0.250000X1.000000X0.900000X-1.000000X0.900000X-1.000000X-0.900000X1.000000X-0.900000X0*%
%ADD50RoundRect,0.243750X-0.243750X-0.456250X0.243750X-0.456250X0.243750X0.456250X-0.243750X0.456250X0*%
%ADD51RoundRect,0.250000X-0.725000X0.600000X-0.725000X-0.600000X0.725000X-0.600000X0.725000X0.600000X0*%
%ADD52O,1.950000X1.700000*%
%ADD53R,2.150000X1.600000*%
%ADD54RoundRect,0.250001X1.149999X-1.149999X1.149999X1.149999X-1.149999X1.149999X-1.149999X-1.149999X0*%
%ADD55C,3.500000*%
G04 APERTURE END LIST*
D10*
%TO.C,U3*%
X95478600Y-70197400D03*
X95478600Y-68797400D03*
X94778600Y-70897400D03*
X94778600Y-69497400D03*
X94778600Y-68097400D03*
X94078600Y-70197400D03*
D11*
X94078600Y-69497400D03*
D10*
X94078600Y-68797400D03*
X93378600Y-70897400D03*
X93378600Y-69497400D03*
X93378600Y-68097400D03*
X92678600Y-70197400D03*
X92678600Y-68797400D03*
D12*
X104328600Y-61777400D03*
X104328600Y-63047400D03*
X104328600Y-64317400D03*
X104328600Y-65587400D03*
X104328600Y-66857400D03*
X104328600Y-68127400D03*
X104328600Y-69397400D03*
X104328600Y-70667400D03*
X104328600Y-71937400D03*
X104328600Y-73207400D03*
X104328600Y-74477400D03*
X104328600Y-75747400D03*
X104328600Y-77017400D03*
X104328600Y-78287400D03*
D13*
X102563600Y-79537400D03*
X101293600Y-79537400D03*
X100023600Y-79537400D03*
X98753600Y-79537400D03*
X97483600Y-79537400D03*
X96213600Y-79537400D03*
X94943600Y-79537400D03*
X93673600Y-79537400D03*
X92403600Y-79537400D03*
X91133600Y-79537400D03*
X89863600Y-79537400D03*
X88593600Y-79537400D03*
D12*
X86828600Y-78287400D03*
X86828600Y-77017400D03*
X86828600Y-75747400D03*
X86828600Y-74477400D03*
X86828600Y-73207400D03*
X86828600Y-71937400D03*
X86828600Y-70667400D03*
X86828600Y-69397400D03*
X86828600Y-68127400D03*
X86828600Y-66857400D03*
X86828600Y-65587400D03*
X86828600Y-64317400D03*
X86828600Y-63047400D03*
X86828600Y-61777400D03*
%TD*%
D14*
%TO.C,J13*%
X54584600Y-127660400D03*
D15*
X54584600Y-122660400D03*
%TD*%
D16*
%TO.C,C15*%
X82738000Y-61772800D03*
X80838000Y-61772800D03*
%TD*%
D17*
%TO.C,D6*%
X136946600Y-91539900D03*
X135996600Y-89264900D03*
X137896600Y-89264900D03*
%TD*%
%TO.C,D10*%
X136946600Y-77005600D03*
X135996600Y-74730600D03*
X137896600Y-74730600D03*
%TD*%
D18*
%TO.C,J1*%
X137932800Y-63254400D03*
X135432800Y-63254400D03*
D19*
X132932800Y-63254400D03*
%TD*%
D18*
%TO.C,J2*%
X72745600Y-63296800D03*
X70245600Y-63296800D03*
D19*
X67745600Y-63296800D03*
D20*
X66145600Y-65296800D03*
%TD*%
D21*
%TO.C,J7*%
X56939800Y-81513200D03*
X56939800Y-71293200D03*
X53009800Y-81513200D03*
X53009800Y-71293200D03*
D22*
X57514800Y-73353200D03*
X57514800Y-74153200D03*
X57514800Y-74653200D03*
X57514800Y-75653200D03*
X57514800Y-77153200D03*
X57514800Y-78153200D03*
X57514800Y-78653200D03*
X57514800Y-79453200D03*
X57514800Y-79753200D03*
X57514800Y-78953200D03*
X57514800Y-77653200D03*
X57514800Y-76653200D03*
X57514800Y-76153200D03*
X57514800Y-75153200D03*
X57514800Y-73853200D03*
X57514800Y-73053200D03*
D23*
X56439800Y-79293200D03*
X56439800Y-73513200D03*
%TD*%
D18*
%TO.C,J15*%
X115707800Y-63254400D03*
X113207800Y-63254400D03*
D19*
X110707800Y-63254400D03*
D20*
X109107800Y-65254400D03*
%TD*%
D18*
%TO.C,J18*%
X126820300Y-63254400D03*
X124320300Y-63254400D03*
D19*
X121820300Y-63254400D03*
D20*
X120220300Y-65254400D03*
%TD*%
D24*
%TO.C,J21*%
X65137200Y-93497400D03*
D25*
X62637200Y-93497400D03*
D20*
X61037200Y-95497400D03*
%TD*%
D24*
%TO.C,J22*%
X56018600Y-93497400D03*
D25*
X53518600Y-93497400D03*
D20*
X51918600Y-95497400D03*
%TD*%
D24*
%TO.C,J23*%
X56018600Y-100743000D03*
D25*
X53518600Y-100743000D03*
D20*
X51918600Y-102743000D03*
%TD*%
D24*
%TO.C,J24*%
X65137200Y-100711000D03*
D25*
X62637200Y-100711000D03*
D20*
X61037200Y-102711000D03*
%TD*%
D24*
%TO.C,J25*%
X56018600Y-107813600D03*
D25*
X53518600Y-107813600D03*
D20*
X51918600Y-109813600D03*
%TD*%
D24*
%TO.C,J26*%
X65137200Y-107797600D03*
D25*
X62637200Y-107797600D03*
D20*
X61037200Y-109797600D03*
%TD*%
D24*
%TO.C,J27*%
X56018600Y-114884200D03*
D25*
X53518600Y-114884200D03*
D20*
X51918600Y-116884200D03*
%TD*%
D24*
%TO.C,J28*%
X65137200Y-114884200D03*
D25*
X62637200Y-114884200D03*
D20*
X61037200Y-116884200D03*
%TD*%
D18*
%TO.C,J29*%
X76690400Y-112167933D03*
X74190400Y-112167933D03*
D19*
X71690400Y-112167933D03*
D20*
X70090400Y-114167933D03*
%TD*%
D18*
%TO.C,J34*%
X76690400Y-105120467D03*
X74190400Y-105120467D03*
D19*
X71690400Y-105120467D03*
D20*
X70090400Y-107120467D03*
%TD*%
D26*
%TO.C,R3*%
X82600800Y-65403100D03*
X82600800Y-63578100D03*
%TD*%
%TO.C,R11*%
X89863600Y-84402300D03*
X89863600Y-82577300D03*
%TD*%
%TO.C,R12*%
X102563600Y-84402300D03*
X102563600Y-82577300D03*
%TD*%
D27*
%TO.C,R34*%
X112203700Y-78409800D03*
X114028700Y-78409800D03*
%TD*%
D28*
%TO.C,SW1*%
X78359000Y-61737400D03*
X78359000Y-66837400D03*
%TD*%
D29*
%TO.C,SW2*%
X115513800Y-76174600D03*
X110413800Y-76174600D03*
%TD*%
D30*
%TO.C,R35*%
X109665300Y-68402200D03*
X111490300Y-68402200D03*
%TD*%
D31*
%TO.C,D12*%
X138912600Y-72828600D03*
X138912600Y-70028600D03*
%TD*%
D27*
%TO.C,R4*%
X127316385Y-127838343D03*
X125491385Y-127838343D03*
%TD*%
D32*
%TO.C,C22*%
X133962800Y-72923600D03*
X133962800Y-71023600D03*
%TD*%
D33*
%TO.C,R21*%
X60858400Y-75029700D03*
X60858400Y-73204700D03*
%TD*%
D30*
%TO.C,R44*%
X56442900Y-85928200D03*
X58267900Y-85928200D03*
%TD*%
D34*
%TO.C,J19*%
X66282400Y-88722200D03*
D35*
X63742400Y-88722200D03*
X61202400Y-88722200D03*
%TD*%
D36*
%TO.C,U7*%
X131755300Y-74743100D03*
X131755300Y-75693100D03*
X131755300Y-76643100D03*
X134030300Y-76643100D03*
X134030300Y-74743100D03*
%TD*%
D37*
%TO.C,U1*%
X126008600Y-114300000D03*
X126008600Y-113350000D03*
X126008600Y-112400000D03*
X123733600Y-112400000D03*
X123733600Y-113350000D03*
X123733600Y-114300000D03*
%TD*%
D38*
%TO.C,L1*%
X120812600Y-113690400D03*
X117312600Y-113690400D03*
%TD*%
D39*
%TO.C,D19*%
X135841771Y-130733800D03*
X131841771Y-130733800D03*
%TD*%
D31*
%TO.C,D7*%
X138912600Y-87205000D03*
X138912600Y-84405000D03*
%TD*%
D27*
%TO.C,R16*%
X90104842Y-127838343D03*
X88279842Y-127838343D03*
%TD*%
D40*
%TO.C,Q2*%
X123688885Y-125308343D03*
X121788885Y-125308343D03*
X122738885Y-127928343D03*
%TD*%
D19*
%TO.C,J42*%
X109644800Y-89814400D03*
D18*
X112144800Y-89814400D03*
X114644800Y-89814400D03*
X117144800Y-89814400D03*
%TD*%
D17*
%TO.C,U5*%
X127158885Y-123632143D03*
X126208885Y-123632143D03*
X125258885Y-123632143D03*
X125258885Y-125907143D03*
X127158885Y-125907143D03*
%TD*%
D34*
%TO.C,J20*%
X57265400Y-88696800D03*
D35*
X54725400Y-88696800D03*
X52185400Y-88696800D03*
%TD*%
D30*
%TO.C,R30*%
X61002271Y-123240143D03*
X62827271Y-123240143D03*
%TD*%
D41*
%TO.C,C2*%
X146802600Y-111658400D03*
X143852600Y-111658400D03*
%TD*%
D42*
%TO.C,C4*%
X125496400Y-116078000D03*
X123596400Y-116078000D03*
%TD*%
D43*
%TO.C,J8*%
X97902728Y-136778343D03*
D24*
X95402728Y-136778343D03*
%TD*%
D41*
%TO.C,C7*%
X137542800Y-110667800D03*
X134592800Y-110667800D03*
%TD*%
%TO.C,C5*%
X117324400Y-108839000D03*
X114374400Y-108839000D03*
%TD*%
D30*
%TO.C,R6*%
X69643700Y-86792280D03*
X71468700Y-86792280D03*
%TD*%
D43*
%TO.C,J12*%
X64994071Y-136778343D03*
D24*
X62494071Y-136778343D03*
%TD*%
D19*
%TO.C,J38*%
X109644800Y-96862900D03*
D18*
X112144800Y-96862900D03*
X114644800Y-96862900D03*
X117144800Y-96862900D03*
%TD*%
D42*
%TO.C,C25*%
X75356800Y-84424520D03*
X73456800Y-84424520D03*
%TD*%
D30*
%TO.C,R58*%
X103200614Y-123240143D03*
X105025614Y-123240143D03*
%TD*%
D37*
%TO.C,U4*%
X146056900Y-115529400D03*
X146056900Y-114579400D03*
X146056900Y-113629400D03*
X143781900Y-113629400D03*
X143781900Y-114579400D03*
X143781900Y-115529400D03*
%TD*%
D30*
%TO.C,R9*%
X112503500Y-123240143D03*
X114328500Y-123240143D03*
%TD*%
%TO.C,R40*%
X69643700Y-84394520D03*
X71468700Y-84394520D03*
%TD*%
D44*
%TO.C,F2*%
X69672200Y-134853343D03*
X69672200Y-137653343D03*
%TD*%
D43*
%TO.C,J11*%
X76796957Y-136778343D03*
D24*
X74296957Y-136778343D03*
%TD*%
D26*
%TO.C,R22*%
X60833000Y-78538700D03*
X60833000Y-80363700D03*
%TD*%
D31*
%TO.C,D8*%
X136372600Y-87205000D03*
X136372600Y-84405000D03*
%TD*%
D45*
%TO.C,U15*%
X66761600Y-69138800D03*
X66761600Y-69788800D03*
X66761600Y-70438800D03*
X66761600Y-71088800D03*
X66761600Y-71738800D03*
X66761600Y-72388800D03*
X66761600Y-73038800D03*
X66761600Y-73688800D03*
X66761600Y-74338800D03*
X66761600Y-74988800D03*
X73761600Y-74988800D03*
X73761600Y-74338800D03*
X73761600Y-73688800D03*
X73761600Y-73038800D03*
X73761600Y-72388800D03*
X73761600Y-71738800D03*
X73761600Y-71088800D03*
X73761600Y-70438800D03*
X73761600Y-69788800D03*
X73761600Y-69138800D03*
%TD*%
D40*
%TO.C,Q3*%
X95780228Y-125308343D03*
X93880228Y-125308343D03*
X94830228Y-127928343D03*
%TD*%
D39*
%TO.C,D20*%
X65721571Y-130733800D03*
X61721571Y-130733800D03*
%TD*%
D46*
%TO.C,C8*%
X139255200Y-110642400D03*
X142205200Y-110642400D03*
%TD*%
D42*
%TO.C,C3*%
X145539200Y-117297200D03*
X143639200Y-117297200D03*
%TD*%
D17*
%TO.C,U9*%
X108553114Y-123632143D03*
X107603114Y-123632143D03*
X106653114Y-123632143D03*
X106653114Y-125907143D03*
X108553114Y-125907143D03*
%TD*%
D30*
%TO.C,R26*%
X72791957Y-123240143D03*
X74616957Y-123240143D03*
%TD*%
D47*
%TO.C,C19*%
X138244414Y-124220543D03*
X138244414Y-126120543D03*
%TD*%
%TO.C,C16*%
X101078271Y-124210343D03*
X101078271Y-126110343D03*
%TD*%
%TO.C,C11*%
X128967471Y-124245943D03*
X128967471Y-126145943D03*
%TD*%
D31*
%TO.C,D11*%
X136372600Y-72828600D03*
X136372600Y-70028600D03*
%TD*%
D47*
%TO.C,C12*%
X119645671Y-124195143D03*
X119645671Y-126095143D03*
%TD*%
D41*
%TO.C,C1*%
X126707200Y-110464600D03*
X123757200Y-110464600D03*
%TD*%
D34*
%TO.C,J30*%
X75590400Y-118135400D03*
D35*
X73050400Y-118135400D03*
X70510400Y-118135400D03*
%TD*%
D47*
%TO.C,C27*%
X85217000Y-86984800D03*
X85217000Y-88884800D03*
%TD*%
D17*
%TO.C,U11*%
X89947342Y-123632143D03*
X88997342Y-123632143D03*
X88047342Y-123632143D03*
X88047342Y-125907143D03*
X89947342Y-125907143D03*
%TD*%
D30*
%TO.C,R24*%
X69643700Y-96383320D03*
X71468700Y-96383320D03*
%TD*%
D33*
%TO.C,R19*%
X141224000Y-87282500D03*
X141224000Y-85457500D03*
%TD*%
D40*
%TO.C,Q6*%
X74674457Y-125308343D03*
X72774457Y-125308343D03*
X73724457Y-127928343D03*
%TD*%
D48*
%TO.C,U20*%
X78043000Y-86385400D03*
X78043000Y-87655400D03*
X78043000Y-88925400D03*
X78043000Y-90195400D03*
X78043000Y-91465400D03*
X78043000Y-92735400D03*
X78043000Y-94005400D03*
X78043000Y-95275400D03*
X82993000Y-95275400D03*
X82993000Y-94005400D03*
X82993000Y-92735400D03*
X82993000Y-91465400D03*
X82993000Y-90195400D03*
X82993000Y-88925400D03*
X82993000Y-87655400D03*
X82993000Y-86385400D03*
%TD*%
D27*
%TO.C,R38*%
X127862800Y-68402200D03*
X126037800Y-68402200D03*
%TD*%
D40*
%TO.C,Q1*%
X105083114Y-125308343D03*
X103183114Y-125308343D03*
X104133114Y-127928343D03*
%TD*%
D33*
%TO.C,R49*%
X78690400Y-118957900D03*
X78690400Y-117132900D03*
%TD*%
D49*
%TO.C,D21*%
X140802800Y-80379800D03*
X136502800Y-80379800D03*
%TD*%
D43*
%TO.C,J3*%
X125811385Y-136778343D03*
D24*
X123311385Y-136778343D03*
%TD*%
D50*
%TO.C,D14*%
X137771900Y-108508800D03*
X139646900Y-108508800D03*
%TD*%
D34*
%TO.C,J16*%
X110667800Y-71221600D03*
D35*
X113207800Y-71221600D03*
X115747800Y-71221600D03*
%TD*%
D27*
%TO.C,R27*%
X136619271Y-127838343D03*
X134794271Y-127838343D03*
%TD*%
D32*
%TO.C,C23*%
X77927200Y-84770000D03*
X77927200Y-82870000D03*
%TD*%
D40*
%TO.C,Q8*%
X62884771Y-125308343D03*
X60984771Y-125308343D03*
X61934771Y-127928343D03*
%TD*%
%TO.C,Q5*%
X86477342Y-125308343D03*
X84577342Y-125308343D03*
X85527342Y-127928343D03*
%TD*%
D42*
%TO.C,C9*%
X64805600Y-70129400D03*
X62905600Y-70129400D03*
%TD*%
D27*
%TO.C,R43*%
X53007900Y-85928200D03*
X51182900Y-85928200D03*
%TD*%
D47*
%TO.C,C20*%
X68163671Y-124169743D03*
X68163671Y-126069743D03*
%TD*%
D39*
%TO.C,D18*%
X77524457Y-130733800D03*
X73524457Y-130733800D03*
%TD*%
D19*
%TO.C,J41*%
X109644800Y-82765900D03*
D18*
X112144800Y-82765900D03*
X114644800Y-82765900D03*
X117144800Y-82765900D03*
%TD*%
D51*
%TO.C,J14*%
X99923600Y-92452800D03*
D52*
X99923600Y-94952800D03*
X99923600Y-97452800D03*
X99923600Y-99952800D03*
X99923600Y-102452800D03*
X99923600Y-104952800D03*
%TD*%
D30*
%TO.C,R23*%
X69643700Y-93985560D03*
X71468700Y-93985560D03*
%TD*%
D27*
%TO.C,R37*%
X116750300Y-68402200D03*
X114925300Y-68402200D03*
%TD*%
D33*
%TO.C,R45*%
X107670600Y-72413500D03*
X107670600Y-70588500D03*
%TD*%
D27*
%TO.C,R32*%
X136218300Y-108508800D03*
X134393300Y-108508800D03*
%TD*%
%TO.C,R42*%
X109395900Y-74193400D03*
X107570900Y-74193400D03*
%TD*%
D32*
%TO.C,C21*%
X133962800Y-87300000D03*
X133962800Y-85400000D03*
%TD*%
D17*
%TO.C,U2*%
X99250228Y-123632143D03*
X98300228Y-123632143D03*
X97350228Y-123632143D03*
X97350228Y-125907143D03*
X99250228Y-125907143D03*
%TD*%
D46*
%TO.C,C6*%
X119109000Y-108889800D03*
X122059000Y-108889800D03*
%TD*%
D30*
%TO.C,R2*%
X93897728Y-123240143D03*
X95722728Y-123240143D03*
%TD*%
D43*
%TO.C,J4*%
X116508500Y-136778343D03*
D24*
X114008500Y-136778343D03*
%TD*%
D51*
%TO.C,J37*%
X92837000Y-92402000D03*
D52*
X92837000Y-94902000D03*
X92837000Y-97402000D03*
X92837000Y-99902000D03*
X92837000Y-102402000D03*
X92837000Y-104902000D03*
%TD*%
D39*
%TO.C,D4*%
X117236000Y-130733800D03*
X113236000Y-130733800D03*
%TD*%
%TO.C,D3*%
X126538885Y-130733800D03*
X122538885Y-130733800D03*
%TD*%
D47*
%TO.C,C17*%
X91832671Y-124195143D03*
X91832671Y-126095143D03*
%TD*%
D51*
%TO.C,U8*%
X146380200Y-86814000D03*
D52*
X146380200Y-89314000D03*
X146380200Y-91814000D03*
X146380200Y-94314000D03*
%TD*%
D42*
%TO.C,C30*%
X75356800Y-94015560D03*
X73456800Y-94015560D03*
%TD*%
D30*
%TO.C,R18*%
X139600300Y-89302400D03*
X141425300Y-89302400D03*
%TD*%
D40*
%TO.C,Q7*%
X132991771Y-125308343D03*
X131091771Y-125308343D03*
X132041771Y-127928343D03*
%TD*%
D30*
%TO.C,R15*%
X69643700Y-89190040D03*
X71468700Y-89190040D03*
%TD*%
D32*
%TO.C,C24*%
X80111600Y-84770000D03*
X80111600Y-82870000D03*
%TD*%
D34*
%TO.C,J17*%
X121780300Y-71221600D03*
D35*
X124320300Y-71221600D03*
X126860300Y-71221600D03*
%TD*%
D32*
%TO.C,C14*%
X84582000Y-63434000D03*
X84582000Y-61534000D03*
%TD*%
D30*
%TO.C,R8*%
X121806385Y-123240143D03*
X123631385Y-123240143D03*
%TD*%
D43*
%TO.C,J9*%
X88599842Y-136778343D03*
D24*
X86099842Y-136778343D03*
%TD*%
D39*
%TO.C,D2*%
X98630228Y-130733800D03*
X94630228Y-130733800D03*
%TD*%
D27*
%TO.C,R33*%
X116139700Y-106603800D03*
X114314700Y-106603800D03*
%TD*%
D43*
%TO.C,J10*%
X135114271Y-136778343D03*
D24*
X132614271Y-136778343D03*
%TD*%
D26*
%TO.C,R5*%
X63830200Y-71960100D03*
X63830200Y-73785100D03*
%TD*%
D27*
%TO.C,R29*%
X66499071Y-127838343D03*
X64674071Y-127838343D03*
%TD*%
D34*
%TO.C,J33*%
X75590400Y-100203000D03*
D35*
X73050400Y-100203000D03*
X70510400Y-100203000D03*
%TD*%
D27*
%TO.C,R10*%
X108710614Y-127838343D03*
X106885614Y-127838343D03*
%TD*%
%TO.C,R41*%
X67308100Y-85928200D03*
X65483100Y-85928200D03*
%TD*%
D17*
%TO.C,U6*%
X117856000Y-123632143D03*
X116906000Y-123632143D03*
X115956000Y-123632143D03*
X115956000Y-125907143D03*
X117856000Y-125907143D03*
%TD*%
D39*
%TO.C,D5*%
X89327342Y-130733800D03*
X85327342Y-130733800D03*
%TD*%
D51*
%TO.C,U14*%
X146380200Y-72179800D03*
D52*
X146380200Y-74679800D03*
X146380200Y-77179800D03*
X146380200Y-79679800D03*
%TD*%
D42*
%TO.C,C10*%
X71358800Y-77089000D03*
X69458800Y-77089000D03*
%TD*%
D50*
%TO.C,D13*%
X137568700Y-120218200D03*
X139443700Y-120218200D03*
%TD*%
D40*
%TO.C,Q4*%
X114386000Y-125308343D03*
X112486000Y-125308343D03*
X113436000Y-127928343D03*
%TD*%
D17*
%TO.C,U22*%
X136461771Y-123632143D03*
X135511771Y-123632143D03*
X134561771Y-123632143D03*
X134561771Y-125907143D03*
X136461771Y-125907143D03*
%TD*%
D30*
%TO.C,R13*%
X139600300Y-74768100D03*
X141425300Y-74768100D03*
%TD*%
%TO.C,R36*%
X120777800Y-68402200D03*
X122602800Y-68402200D03*
%TD*%
D27*
%TO.C,R47*%
X110615100Y-78409800D03*
X108790100Y-78409800D03*
%TD*%
%TO.C,R1*%
X99407728Y-127838343D03*
X97582728Y-127838343D03*
%TD*%
%TO.C,R46*%
X117473100Y-78409800D03*
X115648100Y-78409800D03*
%TD*%
D42*
%TO.C,C26*%
X75356800Y-86822280D03*
X73456800Y-86822280D03*
%TD*%
D53*
%TO.C,L2*%
X141515800Y-114782600D03*
X136715800Y-114782600D03*
%TD*%
D27*
%TO.C,R7*%
X118013500Y-127838343D03*
X116188500Y-127838343D03*
%TD*%
D36*
%TO.C,U13*%
X131755300Y-89277400D03*
X131755300Y-90227400D03*
X131755300Y-91177400D03*
X134030300Y-91177400D03*
X134030300Y-89277400D03*
%TD*%
D50*
%TO.C,D15*%
X117718700Y-106603800D03*
X119593700Y-106603800D03*
%TD*%
D30*
%TO.C,R28*%
X131109271Y-123240143D03*
X132934271Y-123240143D03*
%TD*%
D27*
%TO.C,R31*%
X135989700Y-120218200D03*
X134164700Y-120218200D03*
%TD*%
D17*
%TO.C,U23*%
X66341571Y-123632143D03*
X65391571Y-123632143D03*
X64441571Y-123632143D03*
X64441571Y-125907143D03*
X66341571Y-125907143D03*
%TD*%
D42*
%TO.C,C29*%
X75356800Y-91617800D03*
X73456800Y-91617800D03*
%TD*%
D49*
%TO.C,D9*%
X140757800Y-95014000D03*
X136457800Y-95014000D03*
%TD*%
D42*
%TO.C,C31*%
X75356800Y-96408320D03*
X73456800Y-96408320D03*
%TD*%
D54*
%TO.C,J6*%
X144976100Y-127446600D03*
D14*
X144976100Y-122446600D03*
%TD*%
D47*
%TO.C,C18*%
X79985471Y-124220543D03*
X79985471Y-126120543D03*
%TD*%
D39*
%TO.C,D1*%
X107933114Y-130733800D03*
X103933114Y-130733800D03*
%TD*%
D30*
%TO.C,R20*%
X69643700Y-91587800D03*
X71468700Y-91587800D03*
%TD*%
%TO.C,R17*%
X84594842Y-123240143D03*
X86419842Y-123240143D03*
%TD*%
%TO.C,R39*%
X60223100Y-85928200D03*
X62048100Y-85928200D03*
%TD*%
D17*
%TO.C,U21*%
X78144457Y-123632143D03*
X77194457Y-123632143D03*
X76244457Y-123632143D03*
X76244457Y-125907143D03*
X78144457Y-125907143D03*
%TD*%
D42*
%TO.C,C28*%
X75356800Y-89220040D03*
X73456800Y-89220040D03*
%TD*%
D44*
%TO.C,F3*%
X81457800Y-134853343D03*
X81457800Y-137653343D03*
%TD*%
D27*
%TO.C,R25*%
X78301957Y-127838343D03*
X76476957Y-127838343D03*
%TD*%
D26*
%TO.C,R53*%
X78690400Y-99380500D03*
X78690400Y-101205500D03*
%TD*%
D43*
%TO.C,J5*%
X107205614Y-136778343D03*
D24*
X104705614Y-136778343D03*
%TD*%
D33*
%TO.C,R14*%
X141224000Y-72906100D03*
X141224000Y-71081100D03*
%TD*%
D47*
%TO.C,C13*%
X110349271Y-124210343D03*
X110349271Y-126110343D03*
%TD*%
D55*
%TO.C,REF\u002A\u002A*%
X145000000Y-65000000D03*
%TD*%
%TO.C,REF\u002A\u002A*%
X145000000Y-135000000D03*
%TD*%
%TO.C,REF\u002A\u002A*%
X55000000Y-135000000D03*
%TD*%
%TO.C,REF\u002A\u002A*%
X55000000Y-65000000D03*
%TD*%
M02*
