M48
; DRILL file {KiCad 9.0.6} date 2026-01-06T18:19:20+0100
; FORMAT={-:-/ absolute / metric / decimal}
; #@! TF.CreationDate,2026-01-06T18:19:20+01:00
; #@! TF.GenerationSoftware,Kicad,Pcbnew,9.0.6
; #@! TF.FileFunction,Plated,1,4,PTH
FMAT,2
METRIC
; #@! TA.AperFunction,Plated,PTH,ViaDrill
T1C0.300
; #@! TA.AperFunction,Plated,PTH,ComponentDrill
T2C0.300
; #@! TA.AperFunction,Plated,PTH,ViaDrill
T3C0.600
; #@! TA.AperFunction,Plated,PTH,ComponentDrill
T4C0.950
; #@! TA.AperFunction,Plated,PTH,ComponentDrill
T5C1.000
; #@! TA.AperFunction,Plated,PTH,ComponentDrill
T6C1.300
%
G90
G05
T1
X54.94Y-81.585
X55.016Y-71.272
X60.858Y-81.559
X61.849Y-71.679
X63.602Y-68.504
X65.405Y-122.225
X66.802Y-68.326
X67.132Y-124.968
X73.457Y-84.425
X73.457Y-86.822
X73.457Y-89.22
X73.457Y-91.618
X73.457Y-94.016
X73.457Y-96.408
X75.413Y-73.711
X76.454Y-68.529
X76.502Y-87.862
X76.517Y-91.173
X76.558Y-89.685
X76.606Y-92.735
X76.606Y-94.005
X76.632Y-95.275
X77.165Y-122.225
X78.043Y-85.7
X78.943Y-125.019
X79.096Y-81.763
X79.438Y-87.236
X81.534Y-88.849
X81.534Y-93.98
X83.007Y-96.215
X84.023Y-118.262
X84.328Y-93.294
X84.531Y-103.022
X84.631Y-91.696
X84.633Y-90.195
X85.344Y-65.532
X85.344Y-69.397
X85.344Y-71.984
X85.344Y-73.203
X85.344Y-74.477
X88.275Y-70.917
X88.341Y-61.798
X88.341Y-63.119
X88.405Y-67.17
X89.052Y-122.072
X89.865Y-85.471
X89.891Y-75.794
X90.703Y-124.993
X91.116Y-77.597
X91.364Y-115.976
X91.567Y-81.28
X92.404Y-81.28
X93.674Y-81.28
X94.944Y-81.28
X96.214Y-81.28
X97.484Y-81.28
X98.349Y-122.123
X98.958Y-117.551
X99.949Y-124.892
X101.295Y-81.28
X102.54Y-85.344
X103.149Y-61.777
X104.953Y-110.287
X105.807Y-73.314
X105.816Y-68.224
X105.867Y-65.557
X105.867Y-66.853
X105.867Y-69.418
X107.645Y-122.149
X109.195Y-124.943
X116.764Y-76.2
X116.891Y-122.225
X118.542Y-124.943
X126.035Y-80.848
X126.238Y-122.25
X127.864Y-124.993
X128.092Y-98.298
X130.505Y-90.221
X130.556Y-75.717
X131.547Y-92.177
X131.648Y-77.445
X133.172Y-120.218
X133.985Y-73.914
X134.036Y-88.443
X135.585Y-122.25
X136.55Y-101.244
X137.185Y-125.044
X137.643Y-71.323
X138.354Y-127.279
X140.03Y-85.457
X147.93Y-111.633
X159.334Y-115.722
T2
X92.679Y-68.797
X92.679Y-70.197
X93.379Y-68.097
X93.379Y-69.497
X93.379Y-70.897
X94.079Y-68.797
X94.079Y-70.197
X94.779Y-68.097
X94.779Y-69.497
X94.779Y-70.897
X95.479Y-68.797
X95.479Y-70.197
T3
X59.69Y-125.247
X69.698Y-133.477
X71.425Y-126.949
X81.407Y-133.502
X82.321Y-127.508
X88.646Y-134.137
X93.396Y-126.746
X97.917Y-134.315
X102.768Y-126.721
X105.156Y-81.407
X107.899Y-134.315
X112.014Y-126.746
X112.928Y-108.915
X116.535Y-134.391
X121.31Y-126.797
X123.622Y-108.661
X125.755Y-134.518
X130.632Y-126.721
X131.572Y-110.668
X134.722Y-114.808
X135.179Y-134.391
X136.347Y-82.296
X136.5Y-97.13
X138.379Y-80.366
X138.379Y-94.996
X143.561Y-109.906
X147.549Y-113.665
T4
X67.746Y-63.297
X70.246Y-63.297
X71.69Y-105.12
X71.69Y-112.168
X72.746Y-63.297
X74.19Y-105.12
X74.19Y-112.168
X76.69Y-105.12
X76.69Y-112.168
X92.837Y-92.402
X92.837Y-94.902
X92.837Y-97.402
X92.837Y-99.902
X92.837Y-102.402
X92.837Y-104.902
X99.924Y-92.453
X99.924Y-94.953
X99.924Y-97.453
X99.924Y-99.953
X99.924Y-102.453
X99.924Y-104.953
X109.645Y-82.766
X109.645Y-89.814
X109.645Y-96.863
X110.708Y-63.254
X112.145Y-82.766
X112.145Y-89.814
X112.145Y-96.863
X113.208Y-63.254
X114.645Y-82.766
X114.645Y-89.814
X114.645Y-96.863
X115.708Y-63.254
X117.145Y-82.766
X117.145Y-89.814
X117.145Y-96.863
X121.82Y-63.254
X124.32Y-63.254
X126.82Y-63.254
X132.933Y-63.254
X135.433Y-63.254
X137.933Y-63.254
X146.38Y-72.18
X146.38Y-74.68
X146.38Y-77.18
X146.38Y-79.68
X146.38Y-86.814
X146.38Y-89.314
X146.38Y-91.814
X146.38Y-94.314
T5
X52.185Y-88.697
X53.519Y-93.497
X53.519Y-100.743
X53.519Y-107.814
X53.519Y-114.884
X54.725Y-88.697
X56.019Y-93.497
X56.019Y-100.743
X56.019Y-107.814
X56.019Y-114.884
X57.265Y-88.697
X61.202Y-88.722
X62.494Y-136.778
X62.637Y-93.497
X62.637Y-100.711
X62.637Y-107.798
X62.637Y-114.884
X63.742Y-88.722
X64.994Y-136.778
X65.137Y-93.497
X65.137Y-100.711
X65.137Y-107.798
X65.137Y-114.884
X66.282Y-88.722
X70.51Y-100.203
X70.51Y-118.135
X73.05Y-100.203
X73.05Y-118.135
X74.297Y-136.778
X75.59Y-100.203
X75.59Y-118.135
X76.797Y-136.778
X86.1Y-136.778
X88.6Y-136.778
X95.403Y-136.778
X97.903Y-136.778
X104.706Y-136.778
X107.206Y-136.778
X110.668Y-71.222
X113.208Y-71.222
X114.008Y-136.778
X115.748Y-71.222
X116.508Y-136.778
X121.78Y-71.222
X123.311Y-136.778
X124.32Y-71.222
X125.811Y-136.778
X126.86Y-71.222
X132.614Y-136.778
X135.114Y-136.778
T6
X54.585Y-122.66
X54.585Y-127.66
X144.976Y-122.447
X144.976Y-127.447
M30
